<svg xmlns="http://www.w3.org/2000/svg" viewBox="0 0 32 32" aria-hidden="true">
  <rect width="32" height="32" rx="6" fill="#0b1220"/>
  <g fill="#e6edf3">
    <rect x="3" y="3" width="10" height="10"/>
    <rect x="5" y="5" width="6" height="6" fill="#0b1220"/>
    <rect x="7" y="7" width="2" height="2" fill="#e6edf3"/>
  </g>
  <g fill="#e6edf3">
    <rect x="19" y="3" width="10" height="10"/>
    <rect x="21" y="5" width="6" height="6" fill="#0b1220"/>
    <rect x="23" y="7" width="2" height="2" fill="#e6edf3"/>
  </g>
  <g fill="#e6edf3">
    <rect x="3" y="19" width="10" height="10"/>
    <rect x="5" y="21" width="6" height="6" fill="#0b1220"/>
    <rect x="7" y="23" width="2" height="2" fill="#e6edf3"/>
  </g>
  <g fill="#4f9cff">
    <rect x="17" y="17" width="3" height="3"/>
    <rect x="21" y="17" width="3" height="3"/>
    <rect x="26" y="17" width="3" height="3"/>
    <rect x="17" y="21" width="3" height="3"/>
    <rect x="24" y="21" width="3" height="3"/>
    <rect x="20" y="25" width="3" height="3"/>
    <rect x="26" y="25" width="3" height="3"/>
  </g>
</svg>
